<svg width="4618" height="4618" viewBox="0 0 4618 4618" fill="none" xmlns="http://www.w3.org/2000/svg">
<path d="M2114 862.583C2234.67 792.917 2383.33 792.917 2504 862.583L3457.64 1413.17C3578.3 1482.83 3652.64 1611.58 3652.64 1750.92V2852.08C3652.64 2991.42 3578.3 3120.17 3457.64 3189.83L2504 3740.42C2383.33 3810.08 2234.67 3810.08 2114 3740.42L1160.36 3189.83C1039.7 3120.17 965.362 2991.42 965.362 2852.08V1750.92C965.362 1611.58 1039.7 1482.83 1160.36 1413.17L2114 862.583Z" fill="#177D2D"/>
<path d="M2654.09 2737.4C2654.09 2702.49 2648.72 2671.16 2637.98 2643.41C2628.13 2614.76 2609.33 2588.8 2581.58 2565.53C2553.83 2541.36 2514.89 2517.64 2464.76 2494.36C2414.63 2471.09 2349.73 2446.92 2270.06 2421.85C2181.44 2393.21 2097.29 2360.98 2017.62 2325.17C1938.84 2289.36 1869.02 2247.74 1808.15 2200.29C1748.17 2151.95 1700.72 2096.01 1665.81 2032.45C1631.79 1968.89 1614.79 1895.04 1614.79 1810.89C1614.79 1729.43 1632.69 1655.58 1668.5 1589.33C1704.3 1522.19 1754.43 1464.9 1818.89 1417.46C1883.34 1369.12 1959.43 1331.97 2047.16 1306.01C2135.78 1280.05 2232.91 1267.07 2338.54 1267.07C2482.67 1267.07 2608.44 1293.03 2715.86 1344.95C2823.28 1396.87 2906.53 1468.03 2965.62 1558.45C3025.59 1648.86 3055.58 1752.26 3055.58 1868.63H2655.44C2655.44 1811.34 2643.35 1761.21 2619.18 1718.24C2595.91 1674.37 2560.1 1639.91 2511.76 1614.84C2464.31 1589.78 2404.34 1577.25 2331.83 1577.25C2262 1577.25 2203.82 1587.99 2157.27 1609.47C2110.72 1630.06 2075.81 1658.26 2052.53 1694.07C2029.26 1728.98 2017.62 1768.37 2017.62 1812.23C2017.62 1845.35 2025.67 1875.34 2041.79 1902.2C2058.8 1929.05 2083.86 1954.12 2116.98 1977.39C2150.11 2000.67 2190.84 2022.6 2239.18 2043.19C2287.52 2063.78 2343.46 2083.92 2407.02 2103.61C2513.55 2135.84 2607.1 2172.1 2687.66 2212.38C2769.12 2252.66 2837.16 2297.87 2891.76 2348C2946.37 2398.13 2987.55 2454.97 3015.3 2518.53C3043.05 2582.09 3056.92 2654.15 3056.92 2734.72C3056.92 2819.76 3040.36 2895.85 3007.24 2962.99C2974.12 3030.13 2926.23 3086.97 2863.57 3133.52C2800.9 3180.07 2726.15 3215.43 2639.32 3239.6C2552.49 3263.77 2455.36 3275.86 2347.94 3275.86C2251.26 3275.86 2155.92 3263.32 2061.93 3238.26C1967.94 3212.3 1882.45 3173.36 1805.46 3121.44C1729.37 3069.52 1668.5 3003.27 1622.84 2922.71C1577.19 2842.14 1554.36 2746.8 1554.36 2636.7H1958.54C1958.54 2697.57 1967.94 2749.04 1986.73 2791.11C2005.53 2833.19 2031.94 2867.2 2065.96 2893.17C2100.87 2919.13 2142.05 2937.92 2189.49 2949.56C2237.83 2961.2 2290.65 2967.02 2347.94 2967.02C2417.76 2967.02 2475.06 2957.17 2519.82 2937.48C2565.47 2917.78 2599.04 2890.48 2620.52 2855.57C2642.9 2820.66 2654.09 2781.27 2654.09 2737.4Z" fill="white"/>
<ellipse cx="1756.5" cy="2637" rx="202.5" ry="141" fill="white"/>
<ellipse cx="2855.25" cy="1868" rx="200.25" ry="141" fill="white"/>
<path d="M567 1321L2180.73 375.018C2258.72 329.302 2355.31 329.248 2433.35 374.876L4051.5 1321" stroke="#177D2D" stroke-width="250" stroke-linecap="round"/>
<path d="M567 3297L2180.73 4242.98C2258.72 4288.7 2355.31 4288.75 2433.35 4243.12L4051.5 3297" stroke="#177D2D" stroke-width="250" stroke-linecap="round"/>
</svg>
